<svg xmlns="http://www.w3.org/2000/svg" width="151" height="32" viewBox="0 0 151 32" fill="none"><path d="M133.157 19.2644C134.91 19.2644 136.331 17.843 136.331 16.0897C136.331 14.3365 134.91 12.9151 133.157 12.9151C131.403 12.9151 129.982 14.3365 129.982 16.0897C129.982 17.843 131.403 19.2644 133.157 19.2644Z" fill="#50FF0A"></path><path d="M24.1533 15.4611C23.9765 15.3913 23.796 15.3253 23.613 15.2631C24.8567 14.6219 25.8327 13.7903 26.5399 12.767C27.3566 11.5843 27.7662 10.1899 27.7662 8.58394C27.7662 6.21853 26.7727 4.29881 24.7882 2.82479C22.8025 1.35077 19.781 0.612511 15.7225 0.612511H0V31.2694H16.5989C20.7745 31.2694 23.9342 30.5324 26.0805 29.0572C28.2268 27.5831 29.2999 25.5178 29.2999 22.8598C29.2999 21.0795 28.8468 19.5607 27.9417 18.3045C27.0366 17.0496 25.7742 16.0997 24.1533 15.4573V15.4611ZM14.5834 6.96426C15.9852 6.96426 17.0434 7.20578 17.758 7.68633C18.4726 8.16812 18.8311 8.89144 18.8311 9.85378C18.8311 10.8161 18.4726 11.5395 17.758 12.0212C17.0421 12.503 15.9839 12.7433 14.5834 12.7433H8.75823V6.96176H14.5834V6.96426ZM19.2046 24.1545C18.4601 24.6662 17.3571 24.9214 15.898 24.9214H8.75948V18.8336H15.898C17.3571 18.8336 18.4601 19.0814 19.2046 19.5781C19.9491 20.0748 20.3213 20.8343 20.3213 21.8551C20.3213 22.876 19.9491 23.6441 19.2046 24.1545Z" fill="#292929"></path><path d="M42.5684 0.613762H33.6782V31.2707H42.5684V0.613762Z" fill="#292929"></path><path d="M69.1534 16.716L55.8399 0.613762H48.5693V31.2707H57.2404V15.1685L70.5552 31.2707H77.8693V0.613762H69.1534V16.716Z" fill="#292929"></path><path d="M93.6131 9.63592C94.3576 8.8765 95.2627 8.30009 96.3283 7.90544C97.394 7.51079 98.5842 7.31409 99.8976 7.31409C101.357 7.31409 102.685 7.59171 103.883 8.14696C105.079 8.70221 106.188 9.54877 107.212 10.6867L112.905 5.60601C111.416 3.79585 109.525 2.40898 107.233 1.44539C104.941 0.481794 102.35 0 99.4594 0C96.9197 0 94.6128 0.387181 92.54 1.1603C90.4671 1.93466 88.6644 3.03644 87.1306 4.46689C85.5981 5.89734 84.4079 7.57677 83.5614 9.50396C82.7148 11.4311 82.2915 13.5774 82.2915 15.9416C82.2915 18.3058 82.7148 20.4521 83.5614 22.3793C84.4079 24.3064 85.5906 25.9859 87.1095 27.4163C88.6271 28.8468 90.4161 29.9498 92.474 30.7229C94.5319 31.496 96.7877 31.8832 99.2403 31.8832C101.489 31.8832 103.758 31.5545 106.05 30.8972C108.342 30.2399 110.393 29.2701 112.204 27.9853V20.4745V15.2407H104.365H99.1208V20.4745H104.365V23.6155C104.078 23.7462 103.794 23.8607 103.51 23.9554C102.299 24.3649 101.05 24.5691 99.7656 24.5691C98.4809 24.5691 97.3567 24.3649 96.3059 23.9554C95.2552 23.547 94.3576 22.9557 93.6131 22.1813C92.8686 21.4082 92.2922 20.4956 91.8826 19.4437C91.473 18.3929 91.2701 17.2251 91.2701 15.9404C91.2701 14.6556 91.4743 13.4368 91.8826 12.3711C92.291 11.3054 92.8686 10.3929 93.6131 9.63344V9.63592Z" fill="#292929"></path><path d="M148.884 9.59235C148.022 7.66516 146.826 5.97203 145.292 4.5117C143.76 3.05262 141.963 1.93465 139.905 1.16154C137.847 0.388424 135.577 0.00124359 133.095 0.00124359C130.614 0.00124359 128.372 0.388424 126.285 1.16154C124.198 1.9359 122.395 3.05262 120.876 4.5117C119.357 5.97203 118.167 7.66516 117.307 9.59235C116.445 11.5195 116.015 13.6372 116.015 15.9428C116.015 18.2485 116.445 20.3375 117.307 22.2933C118.168 24.2492 119.357 25.9435 120.876 27.374C122.394 28.8044 124.205 29.9137 126.307 30.703C128.408 31.4923 130.686 31.8857 133.139 31.8857C135.592 31.8857 137.847 31.4985 139.905 30.7254C141.963 29.9523 143.76 28.8418 145.292 27.3964C146.825 25.951 148.022 24.2579 148.884 22.3158C149.745 20.3749 150.176 18.2497 150.176 15.9428C150.176 13.636 149.745 11.5195 148.884 9.59235ZM140.584 19.4897C140.174 20.5703 139.598 21.4829 138.853 22.2274C138.109 22.9718 137.247 23.5483 136.27 23.9566C135.291 24.3662 134.218 24.5704 133.051 24.5704C131.883 24.5704 130.853 24.3662 129.876 23.9566C128.897 23.5483 128.043 22.9706 127.314 22.2274C126.583 21.4829 126.014 20.5703 125.606 19.4897C125.196 18.4103 124.993 17.2276 124.993 15.9428C124.993 14.6581 125.197 13.4393 125.606 12.3736C126.014 11.3079 126.583 10.4028 127.314 9.65833C128.043 8.91385 128.905 8.33744 129.897 7.92785C130.889 7.5195 131.955 7.31409 133.094 7.31409C134.233 7.31409 135.29 7.51826 136.269 7.92785C137.246 8.33744 138.108 8.91385 138.852 9.65833C139.597 10.4028 140.173 11.3079 140.583 12.3736C140.991 13.4393 141.196 14.6294 141.196 15.9428C141.196 17.2563 140.992 18.4103 140.583 19.4897H140.584Z" fill="#292929"></path></svg>